<svg width="452" height="50" viewBox="0 0 452 50" fill="none" xmlns="http://www.w3.org/2000/svg">
<path d="M7.232 2.56H32.704V5.568H10.368V24.32H30.144V27.264H10.368V48H7.232V2.56ZM36.264 48L55.464 0.575996H55.72L74.92 48H71.4L54.696 5.568L56.872 4.352L39.4 48H36.264ZM45.544 30.016H65.704L66.6 32.96H44.776L45.544 30.016ZM108.14 7.68C106.817 7.04 105.196 6.44266 103.276 5.888C101.356 5.33333 99.4355 5.056 97.5155 5.056C94.5288 5.056 92.1395 5.80267 90.3475 7.296C88.5555 8.78933 87.6595 10.6667 87.6595 12.928C87.6595 14.6347 88.1715 16.064 89.1955 17.216C90.2195 18.3253 91.5635 19.2853 93.2275 20.096C94.8915 20.864 96.6622 21.6107 98.5395 22.336C100.033 22.8907 101.505 23.5093 102.956 24.192C104.449 24.8747 105.793 25.7067 106.988 26.688C108.182 27.6693 109.121 28.8853 109.804 30.336C110.529 31.7867 110.892 33.5787 110.892 35.712C110.892 38.2293 110.294 40.4693 109.1 42.432C107.905 44.352 106.241 45.8453 104.108 46.912C101.974 47.9787 99.4995 48.512 96.6835 48.512C94.4222 48.512 92.3528 48.2347 90.4755 47.68C88.6408 47.1253 87.0195 46.4853 85.6115 45.76C84.2462 44.992 83.1582 44.352 82.3475 43.84L83.8195 41.28C84.7582 41.9627 85.8888 42.6453 87.2115 43.328C88.5768 44.0107 90.0488 44.5867 91.6275 45.056C93.2062 45.5253 94.7848 45.76 96.3635 45.76C98.1982 45.76 99.9688 45.3973 101.676 44.672C103.425 43.9467 104.854 42.8587 105.964 41.408C107.116 39.9147 107.692 38.0373 107.692 35.776C107.692 33.6 107.158 31.8507 106.092 30.528C105.025 29.1627 103.66 28.0533 101.996 27.2C100.332 26.3467 98.5608 25.5787 96.6835 24.896C95.2328 24.3413 93.7822 23.7653 92.3315 23.168C90.8808 22.528 89.5582 21.7813 88.3635 20.928C87.1688 20.032 86.2088 18.9653 85.4835 17.728C84.8008 16.4907 84.4595 14.9973 84.4595 13.248C84.4595 11.072 85.0142 9.17333 86.1235 7.552C87.2328 5.93067 88.7262 4.672 90.6035 3.776C92.5235 2.83733 94.6995 2.34666 97.1315 2.304C99.2648 2.304 101.42 2.58133 103.596 3.136C105.814 3.69066 107.734 4.39466 109.356 5.248L108.14 7.68ZM156.271 2.56V48H153.135V26.624H125.743V48H122.607V2.56H125.743V23.68H153.135V2.56H156.271ZM170.732 2.56H173.868V48H170.732V2.56ZM185.477 25.344C185.477 22.144 186.074 19.1573 187.269 16.384C188.464 13.568 190.128 11.0933 192.261 8.96C194.394 6.784 196.848 5.09867 199.621 3.904C202.437 2.66666 205.445 2.048 208.645 2.048C211.845 2.048 214.853 2.66666 217.669 3.904C220.485 5.09867 222.96 6.784 225.093 8.96C227.226 11.0933 228.89 13.568 230.085 16.384C231.322 19.1573 231.941 22.144 231.941 25.344C231.941 28.544 231.322 31.552 230.085 34.368C228.89 37.1413 227.226 39.5947 225.093 41.728C222.96 43.8613 220.485 45.5253 217.669 46.72C214.853 47.9147 211.845 48.512 208.645 48.512C205.445 48.512 202.437 47.936 199.621 46.784C196.848 45.632 194.394 44.0107 192.261 41.92C190.128 39.8293 188.464 37.376 187.269 34.56C186.074 31.744 185.477 28.672 185.477 25.344ZM188.677 25.408C188.677 28.1813 189.189 30.784 190.213 33.216C191.237 35.648 192.666 37.7813 194.501 39.616C196.336 41.4507 198.448 42.9013 200.837 43.968C203.269 44.992 205.85 45.504 208.581 45.504C211.397 45.504 214.021 44.992 216.453 43.968C218.885 42.9013 221.018 41.4507 222.853 39.616C224.688 37.7813 226.117 35.648 227.141 33.216C228.208 30.784 228.741 28.16 228.741 25.344C228.741 22.5707 228.208 19.968 227.141 17.536C226.117 15.0613 224.688 12.9067 222.853 11.072C221.018 9.19466 218.885 7.72266 216.453 6.656C214.021 5.58933 211.418 5.056 208.645 5.056C205.829 5.056 203.205 5.61067 200.773 6.72C198.341 7.78667 196.208 9.25867 194.373 11.136C192.581 13.0133 191.173 15.1893 190.149 17.664C189.168 20.096 188.677 22.6773 188.677 25.408ZM281.561 49.088L245.72 8.704L246.553 8.064L246.617 48H243.545V1.6H243.737L279.577 42.304L278.745 42.56L278.681 2.56H281.689V49.088H281.561ZM292.202 48L311.402 0.575996H311.658L330.858 48H327.338L310.634 5.568L312.81 4.352L295.338 48H292.202ZM301.482 30.016H321.642L322.538 32.96H300.714L301.482 30.016ZM351.405 2.56C355.8 2.56 359.192 3.47733 361.581 5.312C364.013 7.104 365.229 10.0267 365.229 14.08C365.229 16.0853 364.845 17.92 364.077 19.584C363.309 21.248 362.157 22.6133 360.621 23.68C359.128 24.7467 357.25 25.4293 354.989 25.728L354.669 24.192C357.016 24.3627 359.149 24.96 361.069 25.984C363.032 26.9653 364.589 28.3093 365.741 30.016C366.936 31.68 367.533 33.6427 367.533 35.904C367.533 37.952 367.128 39.744 366.317 41.28C365.549 42.7733 364.482 44.032 363.117 45.056C361.794 46.0373 360.28 46.784 358.573 47.296C356.866 47.7653 355.074 48 353.197 48H341.357V2.56H351.405ZM352.877 23.808C356.12 23.808 358.445 22.9333 359.853 21.184C361.304 19.4347 362.029 17.2587 362.029 14.656C362.029 11.4133 361.069 9.088 359.149 7.68C357.272 6.272 354.733 5.568 351.533 5.568H344.493V23.808H352.877ZM353.069 45.12C355.117 45.12 356.994 44.8 358.701 44.16C360.408 43.4773 361.773 42.4533 362.797 41.088C363.821 39.7227 364.333 38.0373 364.333 36.032C364.333 33.8133 363.757 32.0427 362.605 30.72C361.453 29.3547 360.002 28.3733 358.253 27.776C356.504 27.136 354.712 26.816 352.877 26.816H344.493V45.12H353.069ZM379.107 2.56H382.243V44.992H407.139V48H379.107V2.56ZM417.67 2.56H445.701V5.568H420.806V23.616H443.206V26.624H420.806V44.992H446.597V48H417.67V2.56Z" fill="black"/>
</svg>
